<svg width="324" height="50" viewBox="0 0 324 50" fill="none" xmlns="http://www.w3.org/2000/svg">
<path d="M83.915 50H79.915V0H83.915V50Z" fill="black"/>
<path fill-rule="evenodd" clip-rule="evenodd" d="M62.915 1.09863C62.8389 2.24011 62.3071 9.3067 62.459 12.6504L61.0146 13.1826C60.7107 10.0671 60.1788 7.40698 59.7988 5.96289C59.2668 3.98689 58.3547 3.1509 50.6787 3.37891C50.7547 5.43124 50.6025 10.3711 50.6025 14.9307V28.7627C50.6025 37.8064 50.7552 43.051 50.9072 44.875C50.9833 46.2425 51.3633 46.8508 52.5791 46.9268C54.3269 47.1547 55.0872 47.383 56.9111 47.459L56.7588 48.9023C54.8588 48.9023 50.9828 48.6748 47.2588 48.6748C44.2948 48.6748 41.4067 48.9023 38.5947 48.9023L38.3672 47.459C39.583 47.383 40.7989 47.2309 42.3945 47.0029C43.7624 46.8509 44.5225 46.318 44.5986 45.0264C44.7506 42.4424 44.8271 38.0341 44.8271 28.5352V15.3105C44.8271 10.1431 44.827 5.43119 44.751 3.37891C36.9991 3.37891 36.3911 3.98691 35.3271 6.79883C34.4831 8.97952 34.0261 11.0295 33.4209 13.0703C34.3651 15.9643 34.8838 19.3847 34.8838 23.291C34.8837 33.4746 32.2996 42.1388 25.0039 46.4707C22.2679 48.1426 18.3157 48.9023 14.5918 48.9023C12.0838 48.9023 9.65172 48.6748 7.21973 48.6748C4.93993 48.6748 1.0644 48.9023 0 48.9023V47.459L2.73535 47.1553C4.33115 46.9273 4.7872 46.4703 4.86328 45.1787C4.93928 43.5827 5.24413 38.034 5.24414 31.1943V16.8311C5.24414 10.2957 5.24395 6.57067 5.16797 4.89844C5.16786 3.83474 4.71147 3.45472 3.72363 3.30273L0.379883 2.99902L0.53125 1.47852C1.82327 1.55452 5.09209 1.70703 7.37207 1.70703C9.87992 1.70701 12.5398 1.47852 15.3516 1.47852C21.8116 1.47852 25.5361 2.77124 28.1201 4.82324C29.8554 6.24318 31.3133 8.16214 32.4277 10.5449C32.7686 7.6604 33.0876 3.49845 33.1992 1.09863C34.7955 1.55453 38.5957 1.70703 45.207 1.70703H50.1465C58.6583 1.70703 61.0151 1.6306 62.915 1.09863ZM14.7441 3.15039C11.5524 3.15039 11.4754 3.68268 11.3994 4.51855C11.2474 5.81083 11.0195 8.85198 11.0195 17.2109V31.499C11.0195 41.2264 11.0961 43.8868 11.248 45.6348C11.3241 46.7744 11.6281 47.2304 14.4395 47.2305C19.6073 47.2305 23.1037 45.0266 24.9277 41.7588C26.8277 38.4149 28.3476 32.9426 28.3477 23.7471C28.3477 16.4514 26.8274 11.0551 24.8516 8.16699C22.5716 4.89909 19.4559 3.15049 14.7441 3.15039Z" fill="black"/>
<path d="M122.611 2.15234C126.409 2.15238 129.566 2.8349 132.083 4.2002C134.283 5.35632 136.012 6.93577 137.267 8.93945V3.17578H143.923V18.5361H137.203C137.032 16.9575 136.563 15.4428 135.795 13.9922C135.07 12.4989 133.982 11.3042 132.531 10.4082C131.081 9.46954 129.182 9 126.835 9C124.232 9.00001 122.013 9.63994 120.179 10.9199C118.344 12.1999 116.936 14.0138 115.955 16.3604C114.974 18.7069 114.483 21.4799 114.483 24.6797C114.483 27.7944 114.974 30.5254 115.955 32.8721C116.979 35.1758 118.43 36.9889 120.307 38.3115C122.184 39.5915 124.446 40.2324 127.091 40.2324C129.565 40.2324 131.614 39.7837 133.235 38.8877C134.899 37.9917 136.157 36.7969 137.011 35.3037C137.864 33.7677 138.398 32.0827 138.611 30.248H126.963V24.04H150.387V30.248H145.523V46.8242H138.867V39.4961C137.749 42.0065 135.98 44.0233 133.555 45.5439C131.037 47.0798 127.624 47.8476 123.315 47.8477C118.963 47.8477 115.08 46.9521 111.667 45.1602C108.296 43.3682 105.651 40.7649 103.731 37.3516C101.854 33.9383 100.915 29.8213 100.915 25C100.915 20.1361 101.854 16.0191 103.731 12.6484C105.609 9.2351 108.168 6.63184 111.411 4.83984C114.696 3.04789 118.43 2.15234 122.611 2.15234Z" fill="black"/>
<path fill-rule="evenodd" clip-rule="evenodd" d="M169.592 12.584C173.986 12.584 177.336 13.4805 179.64 15.2725C181.986 17.0645 183.138 19.752 183.096 23.3359V37.9277C183.096 38.6529 183.288 39.2504 183.672 39.7197C184.056 40.1464 184.59 40.3604 185.272 40.3604C185.998 40.3603 186.531 40.1463 186.872 39.7197C187.256 39.2504 187.448 38.653 187.448 37.9277V27.4961H194.104V37.0957C194.104 40.3382 193.272 42.9199 191.608 44.8398C189.944 46.7171 187.363 47.6562 183.864 47.6562C180.366 47.6562 177.762 46.739 176.056 44.9043C174.818 43.5434 174.033 41.7893 173.692 39.6436C173.453 40.4631 173.155 41.2149 172.792 41.8965C171.768 43.8588 170.36 45.2876 168.568 46.1836C166.776 47.0796 164.728 47.5283 162.424 47.5283C159.053 47.5283 156.344 46.717 154.296 45.0957C152.291 43.4318 151.288 41.2561 151.288 38.5684C151.288 36.563 151.715 34.8988 152.568 33.5762C153.422 32.2535 154.616 31.1649 156.152 30.3115C157.688 29.4583 159.459 28.7756 161.464 28.2637L167.352 26.7275C168.461 26.4289 169.379 26.0881 170.104 25.7041C170.872 25.3202 171.426 24.8504 171.768 24.2959C172.148 23.7046 172.339 22.967 172.343 22.083C172.335 20.5237 171.824 19.4049 170.808 18.7275C169.826 18.0024 168.546 17.6396 166.968 17.6396C165.995 17.6397 165.072 17.7549 164.198 17.9844C164.338 18.0569 164.472 18.1341 164.6 18.2158C165.709 18.8558 166.243 19.9227 166.2 21.416C166.2 22.7385 165.71 23.8264 164.729 24.6797C163.79 25.533 162.446 25.9599 160.696 25.96C159.032 25.96 157.538 25.533 156.216 24.6797C154.936 23.7837 154.296 22.4185 154.296 20.584C154.296 18.8347 155.021 17.3626 156.472 16.168C157.922 14.9733 159.821 14.0778 162.168 13.4805C164.515 12.8832 166.989 12.584 169.592 12.584ZM172.216 28.5195C171.917 29.1594 171.491 29.6935 170.937 30.1201C170.382 30.5041 169.635 30.8667 168.696 31.208L167.48 31.7197C166.584 32.0611 165.816 32.4236 165.176 32.8076C164.536 33.1489 164.045 33.5759 163.704 34.0879C163.363 34.5998 163.192 35.2399 163.192 36.0078C163.192 37.1171 163.555 37.9918 164.28 38.6318C165.048 39.2291 166.029 39.5283 167.224 39.5283C168.077 39.5283 168.867 39.3361 169.592 38.9521C170.36 38.5681 170.979 37.949 171.448 37.0957C171.96 36.2424 172.216 35.1119 172.216 33.7041V28.5195Z" fill="black"/>
<path fill-rule="evenodd" clip-rule="evenodd" d="M271.695 12.5195C275.365 12.5196 278.437 13.1813 280.911 14.5039C283.428 15.7839 285.327 17.5977 286.607 19.9443C287.93 22.2482 288.591 24.9152 288.591 27.9443V30.4404H265.858C266.047 32.9308 266.775 34.9572 268.047 36.5195C269.583 38.3542 271.717 39.2725 274.447 39.2725C275.94 39.2724 277.199 39.0158 278.223 38.5039C279.247 37.9492 280.058 37.2449 280.655 36.3916C281.295 35.4957 281.765 34.5147 282.063 33.4482H288.463C288.378 35.2827 287.972 37.0532 287.247 38.7598C286.522 40.4237 285.477 41.9385 284.111 43.3037C282.746 44.6264 281.039 45.6724 278.991 46.4404C276.986 47.2084 274.66 47.5918 272.015 47.5918C268.559 47.5917 265.487 46.9092 262.799 45.5439C260.154 44.1786 258.084 42.1944 256.591 39.5918C255.098 36.9465 254.351 33.7675 254.351 30.0557C254.351 26.3011 255.098 23.1221 256.591 20.5195C258.084 17.917 260.133 15.9336 262.735 14.5684C265.338 13.2031 268.325 12.5195 271.695 12.5195ZM272.015 18.2803C270.735 18.2803 269.626 18.6213 268.688 19.3037C267.749 19.9864 267.023 21.1385 266.511 22.7598C266.316 23.4145 266.166 24.1618 266.052 25H277.071C277.071 23.7201 276.857 22.5897 276.431 21.6084C276.047 20.5844 275.492 19.7731 274.767 19.1758C274.041 18.5786 273.124 18.2803 272.015 18.2803Z" fill="black"/>
<path d="M303.145 12.7119C305.406 12.7119 307.453 13.0963 309.288 13.8643C311.165 14.6322 312.702 15.8478 313.896 17.5117C314.055 17.7193 314.204 17.9363 314.345 18.1621V13.2236H321.064V24.04H314.408C313.555 22.5042 312.574 21.352 311.465 20.584C310.356 19.7733 309.267 19.2404 308.2 18.9844C307.134 18.6858 306.238 18.5362 305.513 18.5361C304.403 18.5361 303.486 18.7709 302.761 19.2402C302.078 19.7096 301.736 20.3921 301.736 21.2881C301.736 21.8854 301.908 22.3976 302.249 22.8242C302.59 23.2507 303.102 23.6136 303.784 23.9121C304.467 24.1681 305.342 24.3811 306.408 24.5518L310.185 25.2559C312.83 25.6825 315.112 26.3443 317.032 27.2402C318.995 28.1362 320.489 29.3309 321.513 30.8242C322.537 32.3175 323.049 34.2374 323.049 36.584C323.049 40.1253 321.96 42.8138 319.784 44.6484C317.608 46.4402 314.707 47.3359 311.08 47.3359C308.606 47.3359 306.387 46.9307 304.425 46.1201C302.462 45.2668 300.883 43.9869 299.688 42.2803C299.553 42.0825 299.427 41.8769 299.305 41.666V46.8242H292.585V35.4961H299.24C300.222 37.1174 301.268 38.3547 302.377 39.208C303.529 40.0612 304.659 40.6587 305.769 41C306.878 41.2987 307.86 41.4482 308.713 41.4482C309.993 41.4482 310.995 41.1916 311.721 40.6797C312.446 40.1677 312.809 39.4425 312.809 38.5039C312.809 37.8641 312.638 37.3309 312.297 36.9043C311.956 36.435 311.422 36.0724 310.696 35.8164C310.014 35.5178 309.139 35.283 308.072 35.1123L304.297 34.4082C301.609 33.9389 299.326 33.2346 297.448 32.2959C295.571 31.3572 294.141 30.1199 293.16 28.584C292.179 27.0053 291.688 25.0637 291.688 22.7598C291.689 19.3893 292.776 16.872 294.952 15.208C297.128 13.544 299.859 12.7119 303.145 12.7119Z" fill="black"/>
<path d="M239.592 12.7764C242.621 12.7764 245.096 13.6937 247.016 15.5283C248.936 17.3203 249.896 20.2 249.896 24.168V41H253.288V46.8242H235.752V41H238.504V24.3604C238.504 22.995 238.141 21.9916 237.416 21.3516C236.733 20.6691 235.816 20.3281 234.664 20.3281C233.896 20.3281 233.171 20.4986 232.488 20.8398C231.806 21.1385 231.251 21.6724 230.824 22.4404C230.442 23.2043 230.25 24.2423 230.248 25.5547V41H233V46.8242H216.104V41H218.792V24.3604C218.792 22.995 218.45 21.9916 217.768 21.3516C217.128 20.6692 216.21 20.3281 215.016 20.3281C214.205 20.3282 213.459 20.4987 212.776 20.8398C212.136 21.1385 211.602 21.6724 211.176 22.4404C210.794 23.2043 210.602 24.2424 210.6 25.5547V41H213.288V46.8242H194.408V41H199.145V19.1123H194.856V13.2881H209.192V20.8076C209.313 20.1222 209.462 19.4717 209.64 18.8564C210.237 16.9364 211.326 15.4426 212.904 14.376C214.483 13.3094 216.723 12.7764 219.624 12.7764C222.739 12.7764 225.278 13.6937 227.24 15.5283C228.37 16.5376 229.181 17.8853 229.674 19.5713C229.733 19.3279 229.797 19.0897 229.864 18.8564C230.462 16.9364 231.507 15.4426 233 14.376C234.536 13.3093 236.733 12.7764 239.592 12.7764Z" fill="black"/>
</svg>
