<?xml version="1.0" encoding="UTF-8"?>
<svg id="uuid-d31d560a-16a3-4d71-89d4-5726718841e3" xmlns="http://www.w3.org/2000/svg" version="1.1" viewBox="0 0 128 128">
  
  <path class="st0" fill="#44a587" d="M124.5,15v17.3c0,6.3-5.1,11.5-11.5,11.5H43.8v28.8c0,6.3-5.1,11.5-11.5,11.5H15c-6.3,0-11.5-5.1-11.5-11.5V15c0-6.3,5.1-11.5,11.5-11.5h98c6.3,0,11.5,5.1,11.5,11.5Z"/>
  <rect class="st2" fill="#97e281" x="43.8" y="43.8" width="80.7" height="40.3" rx="11.5" ry="11.5"/>
  <rect class="st3" fill="#2d6343" x="3.5" y="84.2" width="121" height="40.3" rx="11.5" ry="11.5"/>
  <path class="st1" fill="#fff" d="M23.7,114.5c-5.6,0-10.2-4.6-10.2-10.2s4.6-10.2,10.2-10.2,5.7,1.3,7.6,3.4h65.1c.5,0,.9-.4.9-.9v-24.6c0-.5-.4-.9-.9-.9H31.5c-8.2,0-14.9-6.7-14.9-14.9v-24.6c0-8.2,6.7-14.9,14.9-14.9h65.4c1.9-2,4.6-3.2,7.4-3.2,5.6,0,10.2,4.6,10.2,10.2s-4.6,10.2-10.2,10.2-5.5-1.2-7.4-3.2H31.5c-.5,0-.9.4-.9.9v24.6c0,.5.4.9.9.9h64.9c8.2,0,14.9,6.7,14.9,14.9v24.6c0,8.2-6.7,14.9-14.9,14.9H30.9c-1.9,1.9-4.5,3-7.2,3Z"/>
  <path d="M128,32.3V15c0-8.3-6.7-15-15-15H15C6.7,0,0,6.7,0,15v57.6c0,4.6,2.1,8.8,5.4,11.6-3.3,2.8-5.4,6.9-5.4,11.5v17.3c0,8.3,6.7,15,15,15h98c8.3,0,15-6.7,15-15v-17.3c0-4.6-2.1-8.8-5.4-11.5,3.3-2.8,5.4-6.9,5.4-11.6v-17.3c0-4.6-2.1-8.8-5.4-11.5,3.3-2.8,5.4-6.9,5.4-11.5ZM121,113c0,4.4-3.6,8-8,8H15c-4.4,0-8-3.6-8-8v-17.3c0-4.4,3.6-8,8-8h78.8v6.3h-61.1c-2.5-2.2-5.7-3.4-9-3.4-7.6,0-13.7,6.1-13.7,13.7s6.1,13.7,13.7,13.7,6.2-1.1,8.6-3h64.1c10.1,0,18.4-8.3,18.4-18.4v-8.7c3.5.8,6.2,4,6.2,7.8v17.3ZM31.5,60.6h64.9c6.3,0,11.4,5.1,11.4,11.4v24.6c0,6.3-5.1,11.4-11.4,11.4H29.3c-1.2,1.8-3.3,3-5.6,3-3.7,0-6.7-3-6.7-6.7s3-6.7,6.7-6.7,4.7,1.4,5.8,3.4h66.9c2.4,0,4.4-2,4.4-4.4v-24.6c0-2.4-2-4.4-4.4-4.4H31.5c-6.3,0-11.4-5.1-11.4-11.4v-24.6c0-6.3,5.1-11.4,11.4-11.4h67.1c1.2-1.9,3.3-3.2,5.7-3.2,3.7,0,6.7,3,6.7,6.7s-3,6.7-6.7,6.7-4.5-1.3-5.7-3.2H31.5c-2.4,0-4.4,2-4.4,4.4v24.6c0,2.4,2,4.4,4.4,4.4ZM93.8,74.6v6h-38.5c-3.7,0-6.8-2.5-7.8-6h46.2ZM121,72.6c0,3.8-2.7,7-6.2,7.8v-8.4c0-10.1-8.3-18.4-18.4-18.4h-48.9c.8-3.6,4-6.3,7.8-6.3h57.7c4.4,0,8,3.6,8,8v17.3ZM121,32.3c0,4.4-3.6,8-8,8H43.8c-1.9,0-3.5,1.6-3.5,3.5v9.8h-6.2v-19.4h61.4c2.4,2,5.5,3.2,8.8,3.2,7.6,0,13.7-6.1,13.7-13.7s-6.1-13.7-13.7-13.7-6.4,1.2-8.8,3.2H31.5c-10.1,0-18.4,8.3-18.4,18.4v24.6c0,10.1,8.3,18.4,18.4,18.4h8.5c-.9,3.5-4,6-7.8,6H15c-4.4,0-8-3.6-8-8V15c0-4.4,3.6-8,8-8h98c4.4,0,8,3.6,8,8v17.3Z"/>
</svg>